<svg xmlns="http://www.w3.org/2000/svg" version="1.1" xmlns:xlink="http://www.w3.org/1999/xlink" xmlns:svgjs="http://svgjs.dev/svgjs" width="52" height="52"><svg width="52" height="52" viewBox="0 0 52 52" fill="none" xmlns="http://www.w3.org/2000/svg">
<path d="M21.1315 11.9876C21.6669 11.9876 22.1806 11.7763 22.561 11.3996C22.9414 11.0229 23.1576 10.5112 23.1628 9.97586C23.168 9.44019 22.9614 8.92413 22.588 8.54004C22.2146 8.15596 21.7045 7.93494 21.1689 7.92511M20.956 16.0306C20.4207 16.0306 19.9069 15.8193 19.5266 15.4426C19.1462 15.0659 18.9299 14.5542 18.9248 14.0189C18.9195 13.4832 19.1261 12.9671 19.4996 12.583C19.873 12.199 20.383 11.9779 20.9186 11.9681M21.1315 20.0931C21.6669 20.0931 22.1806 19.8818 22.561 19.5051C22.9414 19.1284 23.1576 18.6167 23.1628 18.0814C23.168 17.5457 22.9614 17.0296 22.588 16.6455C22.2146 16.2615 21.7045 16.0404 21.1689 16.0306M29.2565 11.9876C29.7919 11.9876 30.3056 11.7763 30.686 11.3996C31.0664 11.0229 31.2826 10.5112 31.2878 9.97586C31.293 9.44019 31.0864 8.92413 30.713 8.54004C30.3396 8.15596 29.8295 7.93494 29.2939 7.92511M29.081 16.0306C28.5457 16.0306 28.0319 15.8193 27.6516 15.4426C27.2712 15.0659 27.0549 14.5542 27.0498 14.0189C27.0445 13.4832 27.2511 12.9671 27.6246 12.583C27.998 12.199 28.508 11.9779 29.0436 11.9681M29.2565 20.0931C29.7919 20.0931 30.3056 19.8818 30.686 19.5051C31.0664 19.1284 31.2826 18.6167 31.2878 18.0814C31.293 17.5457 31.0864 17.0296 30.713 16.6455C30.3396 16.2615 29.8295 16.0404 29.2939 16.0306M13.6354 11.9876C14.1708 11.9876 14.6845 11.7763 15.0649 11.3996C15.4452 11.0229 15.6615 10.5112 15.6666 9.97586C15.6719 9.44046 15.4655 8.92465 15.0924 8.54061C14.7194 8.15657 14.2097 7.93536 13.6744 7.92511M13.4615 16.0306C12.9262 16.0306 12.4124 15.8193 12.0321 15.4426C11.6517 15.0659 11.4354 14.5542 11.4303 14.0189C11.425 13.4835 11.6314 12.9676 12.0045 12.5836C12.3776 12.1996 12.8872 11.9784 13.4225 11.9681M13.6354 20.0931C14.1708 20.0931 14.6845 19.8818 15.0649 19.5051C15.4452 19.1284 15.6615 18.6167 15.6666 18.0814C15.6719 17.546 15.4655 17.0301 15.0924 16.6461C14.7194 16.2621 14.2097 16.0409 13.6744 16.0306" stroke="#FAA41A" stroke-linecap="round" stroke-linejoin="round"></path>
<path d="M14.4268 44.0749H29.0485V39.2389C25.9334 40.6136 24.1183 40.8281 21.593 40.8801C18.4356 40.9451 16.2955 40.3991 14.4268 39.9311V44.0749Z" stroke="#383747" stroke-linecap="round" stroke-linejoin="round"></path>
<path d="M40.1408 26.5671C37.4108 36.7624 26.9766 42.8123 16.7814 40.0806C13.5459 39.2168 10.5954 37.515 8.22745 35.1471C5.85948 32.7791 4.15776 29.8286 3.29388 26.5931L40.1408 26.5671Z" fill="#FAA41A" stroke="#383747" stroke-linecap="round" stroke-linejoin="round"></path>
<path d="M3.28412 23.309H40.1472V26.6548H3.28412V23.309Z" stroke="#383747" stroke-linecap="round" stroke-linejoin="round"></path>
<path d="M27.0952 23.2992C39.7702 23.7997 36.5836 14.768 45.9517 13.9522C46.878 13.871 47.3655 13.8531 48.6655 13.936L48.7142 13.9197C47.0973 12.9577 44.1171 11.3295 41.6292 12.0201C40.3568 12.3743 38.3743 13.7426 37.0467 16.3507C33.7041 23.6697 30.4492 23.2846 27.8005 23.2976L27.0952 23.2992Z" stroke="#383747" stroke-linecap="round" stroke-linejoin="round"></path>
<path d="M34.8953 29.4385C33.7448 32.9485 30.6654 35.386 27.0904 36.049" stroke="white" stroke-linecap="round" stroke-linejoin="round"></path>
</svg><style>@media (prefers-color-scheme: light) { :root { filter: none; } }
@media (prefers-color-scheme: dark) { :root { filter: none; } }
</style></svg>